
<svg width="99" height="45" viewBox="0 0 99 45" fill="none" xmlns="http://www.w3.org/2000/svg">
<path d="M40.0638 20.125C39.9577 19.1326 39.5108 18.3598 38.7229 17.8068C37.9426 17.2538 36.9274 16.9773 35.6774 16.9773C34.7987 16.9773 34.0449 17.1098 33.4161 17.375C32.7873 17.6402 32.3062 18 31.9729 18.4545C31.6396 18.9091 31.4691 19.428 31.4615 20.0114C31.4615 20.4962 31.5714 20.9167 31.7911 21.2727C32.0184 21.6288 32.3252 21.9318 32.7115 22.1818C33.0979 22.4242 33.5259 22.6288 33.9956 22.7955C34.4653 22.9621 34.9388 23.1023 35.4161 23.2159L37.5979 23.7614C38.4767 23.9659 39.3214 24.2424 40.132 24.5909C40.9502 24.9394 41.6812 25.3788 42.3252 25.9091C42.9767 26.4394 43.4918 27.0795 43.8706 27.8295C44.2494 28.5795 44.4388 29.4583 44.4388 30.4659C44.4388 31.8295 44.0903 33.0303 43.3934 34.0682C42.6964 35.0985 41.6888 35.9053 40.3706 36.4886C39.06 37.0644 37.4729 37.3523 35.6093 37.3523C33.7987 37.3523 32.2267 37.072 30.8934 36.5114C29.5676 35.9508 28.5297 35.1326 27.7797 34.0568C27.0373 32.9811 26.6358 31.6705 26.5752 30.125H30.7229C30.7835 30.9356 31.0335 31.6098 31.4729 32.1477C31.9123 32.6856 32.4843 33.0871 33.1888 33.3523C33.9009 33.6174 34.6964 33.75 35.5752 33.75C36.4918 33.75 37.2949 33.6136 37.9843 33.3409C38.6812 33.0606 39.2267 32.6742 39.6206 32.1818C40.0146 31.6818 40.2153 31.0985 40.2229 30.4318C40.2153 29.8258 40.0373 29.3258 39.6888 28.9318C39.3403 28.5303 38.8517 28.197 38.2229 27.9318C37.6017 27.6591 36.8744 27.4167 36.0411 27.2045L33.3934 26.5227C31.4767 26.0303 29.9615 25.2841 28.8479 24.2841C27.7418 23.2765 27.1888 21.9394 27.1888 20.2727C27.1888 18.9015 27.56 17.7008 28.3024 16.6705C29.0524 15.6402 30.0714 14.8409 31.3593 14.2727C32.6471 13.697 34.1055 13.4091 35.7343 13.4091C37.3858 13.4091 38.8327 13.697 40.0752 14.2727C41.3252 14.8409 42.3062 15.6326 43.0184 16.6477C43.7305 17.6553 44.0979 18.8144 44.1206 20.125H40.0638ZM71.0498 37V13.7273H75.2657V33.4659H85.5157V37H71.0498Z" fill="#1874FF"/>
<path d="M23.3785 10.7273V34H19.1626V14.8295H19.0262L13.583 18.3068V14.4432L19.3671 10.7273H23.3785ZM65.4653 22.3636C65.4653 24.8712 64.9956 27.0189 64.0562 28.8068C63.1244 30.5871 61.8516 31.9508 60.238 32.8977C58.632 33.8447 56.81 34.3182 54.7721 34.3182C52.7342 34.3182 50.9085 33.8447 49.2948 32.8977C47.6888 31.9432 46.416 30.5758 45.4766 28.7955C44.5448 27.0076 44.0789 24.8636 44.0789 22.3636C44.0789 19.8561 44.5448 17.7121 45.4766 15.9318C46.416 14.1439 47.6888 12.7765 49.2948 11.8295C50.9085 10.8826 52.7342 10.4091 54.7721 10.4091C56.81 10.4091 58.632 10.8826 60.238 11.8295C61.8516 12.7765 63.1244 14.1439 64.0562 15.9318C64.9956 17.7121 65.4653 19.8561 65.4653 22.3636ZM61.2266 22.3636C61.2266 20.5985 60.9501 19.1098 60.3971 17.8977C59.8516 16.678 59.0941 15.7576 58.1244 15.1364C57.1547 14.5076 56.0373 14.1932 54.7721 14.1932C53.507 14.1932 52.3895 14.5076 51.4198 15.1364C50.4501 15.7576 49.6888 16.678 49.1357 17.8977C48.5903 19.1098 48.3176 20.5985 48.3176 22.3636C48.3176 24.1288 48.5903 25.6212 49.1357 26.8409C49.6888 28.053 50.4501 28.9735 51.4198 29.6023C52.3895 30.2235 53.507 30.5341 54.7721 30.5341C56.0373 30.5341 57.1547 30.2235 58.1244 29.6023C59.0941 28.9735 59.8516 28.053 60.3971 26.8409C60.9501 25.6212 61.2266 24.1288 61.2266 22.3636Z" fill="#1874FF"/>
<path d="M26.3785 8.72727V32H22.1626V12.8295H22.0262L16.583 16.3068V12.4432L22.3671 8.72727H26.3785ZM68.4653 20.3636C68.4653 22.8712 67.9956 25.0189 67.0562 26.8068C66.1244 28.5871 64.8516 29.9508 63.238 30.8977C61.632 31.8447 59.81 32.3182 57.7721 32.3182C55.7342 32.3182 53.9085 31.8447 52.2948 30.8977C50.6888 29.9432 49.416 28.5758 48.4766 26.7955C47.5448 25.0076 47.0789 22.8636 47.0789 20.3636C47.0789 17.8561 47.5448 15.7121 48.4766 13.9318C49.416 12.1439 50.6888 10.7765 52.2948 9.82954C53.9085 8.88257 55.7342 8.40909 57.7721 8.40909C59.81 8.40909 61.632 8.88257 63.238 9.82954C64.8516 10.7765 66.1244 12.1439 67.0562 13.9318C67.9956 15.7121 68.4653 17.8561 68.4653 20.3636ZM64.2267 20.3636C64.2267 18.5985 63.9501 17.1098 63.3971 15.8977C62.8516 14.678 62.0941 13.7576 61.1244 13.1364C60.1547 12.5076 59.0373 12.1932 57.7721 12.1932C56.507 12.1932 55.3895 12.5076 54.4198 13.1364C53.4501 13.7576 52.6888 14.678 52.1357 15.8977C51.5903 17.1098 51.3176 18.5985 51.3176 20.3636C51.3176 22.1288 51.5903 23.6212 52.1357 24.8409C52.6888 26.053 53.4501 26.9735 54.4198 27.6023C55.3895 28.2235 56.507 28.5341 57.7721 28.5341C59.0373 28.5341 60.1547 28.2235 61.1244 27.6023C62.0941 26.9735 62.8516 26.053 63.3971 24.8409C63.9501 23.6212 64.2267 22.1288 64.2267 20.3636Z" fill="white"/>
<path d="M42.0638 17.125C41.9577 16.1326 41.5108 15.3598 40.7229 14.8068C39.9426 14.2538 38.9274 13.9773 37.6774 13.9773C36.7987 13.9773 36.0449 14.1098 35.4161 14.375C34.7873 14.6402 34.3062 15 33.9729 15.4545C33.6396 15.9091 33.4691 16.428 33.4615 17.0114C33.4615 17.4962 33.5714 17.9167 33.7911 18.2727C34.0184 18.6288 34.3252 18.9318 34.7115 19.1818C35.0979 19.4242 35.5259 19.6288 35.9956 19.7955C36.4653 19.9621 36.9388 20.1023 37.4161 20.2159L39.5979 20.7614C40.4767 20.9659 41.3214 21.2424 42.132 21.5909C42.9502 21.9394 43.6812 22.3788 44.3252 22.9091C44.9767 23.4394 45.4918 24.0795 45.8706 24.8295C46.2494 25.5795 46.4388 26.4583 46.4388 27.4659C46.4388 28.8295 46.0903 30.0303 45.3934 31.0682C44.6964 32.0985 43.6888 32.9053 42.3706 33.4886C41.06 34.0644 39.4729 34.3523 37.6093 34.3523C35.7987 34.3523 34.2267 34.072 32.8934 33.5114C31.5676 32.9508 30.5297 32.1326 29.7797 31.0568C29.0373 29.9811 28.6358 28.6705 28.5752 27.125H32.7229C32.7835 27.9356 33.0335 28.6098 33.4729 29.1477C33.9123 29.6856 34.4843 30.0871 35.1888 30.3523C35.9009 30.6174 36.6964 30.75 37.5752 30.75C38.4918 30.75 39.2949 30.6136 39.9843 30.3409C40.6812 30.0606 41.2267 29.6742 41.6206 29.1818C42.0146 28.6818 42.2153 28.0985 42.2229 27.4318C42.2153 26.8258 42.0373 26.3258 41.6888 25.9318C41.3403 25.5303 40.8517 25.197 40.2229 24.9318C39.6017 24.6591 38.8744 24.4167 38.0411 24.2045L35.3934 23.5227C33.4767 23.0303 31.9615 22.2841 30.8479 21.2841C29.7418 20.2765 29.1888 18.9394 29.1888 17.2727C29.1888 15.9015 29.56 14.7008 30.3024 13.6705C31.0524 12.6402 32.0714 11.8409 33.3593 11.2727C34.6471 10.697 36.1055 10.4091 37.7343 10.4091C39.3858 10.4091 40.8327 10.697 42.0752 11.2727C43.3252 11.8409 44.3062 12.6326 45.0184 13.6477C45.7305 14.6553 46.0979 15.8144 46.1206 17.125H42.0638ZM73.0498 34V10.7273H77.2657V30.4659H87.5157V34H73.0498Z" fill="white"/>
</svg>